<svg xmlns="http://www.w3.org/2000/svg" viewBox="0 0 17.93 14.59"><defs><style>.cls-1{opacity:0.5;}.cls-2{fill:#fff;fill-rule:evenodd;}</style></defs><g id="Camada_2" data-name="Camada 2"><g id="INTERFACE"><g class="cls-1"><path class="cls-2" d="M5.44,11.42A3.7,3.7,0,0,1,2,8.86a3.66,3.66,0,0,0,1.58,0l.05,0A3.69,3.69,0,0,1,1.25,7.1a3.51,3.51,0,0,1-.54-2,3.67,3.67,0,0,0,1.64.45A3.74,3.74,0,0,1,.83,3.35,3.66,3.66,0,0,1,1.23.68a10.52,10.52,0,0,0,7.6,3.85c0-.14-.05-.27-.06-.4a3.57,3.57,0,0,1,.54-2.41A3.5,3.5,0,0,1,11.8.06a3.59,3.59,0,0,1,3.23,1,.19.19,0,0,0,.2.06A7.52,7.52,0,0,0,17.37.32l.05,0h0a3.78,3.78,0,0,1-1.57,2,7,7,0,0,0,2.05-.56v0l-.42.55a7,7,0,0,1-1.34,1.27.16.16,0,0,0-.06.12A10,10,0,0,1,16,5.34a10.83,10.83,0,0,1-.95,3.28,10.69,10.69,0,0,1-2,2.9A9.83,9.83,0,0,1,8,14.34,11,11,0,0,1,6,14.59,10.45,10.45,0,0,1,.09,13L0,13a7.47,7.47,0,0,0,3.69-.51A7.54,7.54,0,0,0,5.44,11.42Z"/></g></g></g></svg>