<svg xmlns="http://www.w3.org/2000/svg" viewBox="0 0 22 16.27"><defs><style>.cls-1{opacity:0.5;}.cls-2{fill:#fff;}</style></defs><g id="Camada_2" data-name="Camada 2"><g id="INTERFACE"><g class="cls-1"><path class="cls-2" d="M8,7.15a1.16,1.16,0,0,0-1,1.26A1.15,1.15,0,0,0,8,9.66,1.15,1.15,0,0,0,9,8.41,1.16,1.16,0,0,0,8,7.15Z"/><path class="cls-2" d="M14.05,7.15a1.16,1.16,0,0,0-1,1.26,1.15,1.15,0,0,0,1,1.25,1.15,1.15,0,0,0,1-1.25A1.16,1.16,0,0,0,14.05,7.15Z"/><path class="cls-2" d="M19.15,2.14a.73.73,0,0,0-.19-.2A10.27,10.27,0,0,0,13.78,0a.65.65,0,0,0-.57.36l-1,2a15,15,0,0,1,5.31,1.28.65.65,0,0,1-.27,1.23.71.71,0,0,1-.28-.06A14.26,14.26,0,0,0,11,3.6,14.26,14.26,0,0,0,5.07,4.8a.65.65,0,0,1-.55-1.17A15,15,0,0,1,9.83,2.35l-1-2A.64.64,0,0,0,8.22,0,10.27,10.27,0,0,0,3,1.94a.73.73,0,0,0-.19.2C.4,6,0,12.44,0,12.71a.66.66,0,0,0,.16.47c.12.13,2.81,3.09,6.54,3.09h0a.62.62,0,0,0,.5-.25L9,13.84a13.08,13.08,0,0,1-5.71-1.91A.64.64,0,0,1,3.09,11,.64.64,0,0,1,4,10.86a13,13,0,0,0,7,1.81,13,13,0,0,0,7-1.81.64.64,0,0,1,.89.18.64.64,0,0,1-.17.89A13.08,13.08,0,0,1,13,13.84L14.75,16a.62.62,0,0,0,.5.25h.05c3.73,0,6.42-3,6.54-3.09a.66.66,0,0,0,.16-.47C22,12.44,21.6,6,19.15,2.14ZM8,11a2.43,2.43,0,0,1-2.3-2.54A2.43,2.43,0,0,1,8,5.86a2.44,2.44,0,0,1,2.31,2.55A2.43,2.43,0,0,1,8,11Zm6.1,0a2.43,2.43,0,0,1-2.31-2.54,2.44,2.44,0,0,1,2.31-2.55,2.43,2.43,0,0,1,2.3,2.55A2.43,2.43,0,0,1,14.05,11Z"/></g></g></g></svg>