<svg xmlns="http://www.w3.org/2000/svg" viewBox="0 0 17.06 17.05"><defs><style>.cls-1{opacity:0.5;}.cls-2{fill:#fff;}</style></defs><g id="Camada_2" data-name="Camada 2"><g id="INTERFACE"><g class="cls-1"><path class="cls-2" d="M16.92,4.28a4.56,4.56,0,0,0-1.38-2.91A4.71,4.71,0,0,0,12.41.1,61.8,61.8,0,0,0,4,.19,4.3,4.3,0,0,0,.29,3.5C-.12,5,0,11.64.2,13.08A4.31,4.31,0,0,0,3.62,16.8a50.49,50.49,0,0,0,9.45.06,4.32,4.32,0,0,0,3.73-3.41C17.19,12,17.06,5.62,16.92,4.28ZM15.35,12.8a2.9,2.9,0,0,1-2.72,2.58c-1.37.15-7.52.23-8.79-.13a2.79,2.79,0,0,1-2.12-2.41,56,56,0,0,1,0-8.6A2.9,2.9,0,0,1,4.42,1.67a58.69,58.69,0,0,1,8.39,0,2.87,2.87,0,0,1,2.57,2.71A60.15,60.15,0,0,1,15.35,12.8ZM8.53,4.15A4.38,4.38,0,1,0,12.9,8.53,4.38,4.38,0,0,0,8.53,4.15Zm0,7.2a2.83,2.83,0,1,1,2.85-2.8A2.82,2.82,0,0,1,8.5,11.35ZM14.1,4a1,1,0,1,1-1-1A1,1,0,0,1,14.1,4Z"/><path class="cls-2" d="M16.92,4.28a4.56,4.56,0,0,0-1.38-2.91A4.71,4.71,0,0,0,12.41.1,61.8,61.8,0,0,0,4,.19,4.3,4.3,0,0,0,.29,3.5C-.12,5,0,11.64.2,13.08A4.31,4.31,0,0,0,3.62,16.8a50.49,50.49,0,0,0,9.45.06,4.32,4.32,0,0,0,3.73-3.41C17.19,12,17.06,5.62,16.92,4.28ZM15.35,12.8a2.9,2.9,0,0,1-2.72,2.58c-1.37.15-7.52.23-8.79-.13a2.79,2.79,0,0,1-2.12-2.41,56,56,0,0,1,0-8.6A2.9,2.9,0,0,1,4.42,1.67a58.69,58.69,0,0,1,8.39,0,2.87,2.87,0,0,1,2.57,2.71A60.15,60.15,0,0,1,15.35,12.8ZM8.53,4.15A4.38,4.38,0,1,0,12.9,8.53,4.38,4.38,0,0,0,8.53,4.15Zm0,7.2a2.83,2.83,0,1,1,2.85-2.8A2.82,2.82,0,0,1,8.5,11.35ZM14.1,4a1,1,0,1,1-1-1A1,1,0,0,1,14.1,4Z"/></g></g></g></svg>